<?xml version="1.0" encoding="UTF-8"?>
<svg id="Layer_1" data-name="Layer 1" xmlns="http://www.w3.org/2000/svg" viewBox="0 0 82.8 45.36" width="230" height="126">
  <defs>
    <style>
      .cls-1 {
        fill: #fff;
      }

      .cls-2 {
        fill: #231f20;
      }
    </style>
  </defs>
  <g id="area_back" data-name="area back">
    <rect class="cls-2" x=".25" y=".25" width="29.5" height="44.86"/>
    <path class="cls-1" d="m29.5.5v44.36H.5V.5h29m.5-.5H0v45.36h30V0h0Z"/>
  </g>
  <rect class="cls-1" x="1.87" y="2.08" width="26.19" height="7.36"/>
  <rect class="cls-1" x="1.86" y="11.04" width="26.21" height="27.05"/>
  <polygon class="cls-1" points="1.86 43.28 1.86 39.69 7.13 39.69 7.13 40.53 3.98 40.53 3.98 41.04 6.64 41.04 6.64 41.88 3.98 41.88 3.98 42.44 7.25 42.44 7.25 43.28 1.86 43.28"/>
  <path class="cls-1" d="m11.72,40.74c0-.12-.15-.2-.31-.25-.18-.04-.36-.06-.54-.06-.47,0-.67.07-.67.21,0,.53,3.7.19,3.7,1.5,0,.83-1.24,1.24-3,1.24s-2.82-.55-2.86-1.2h2c.07.14.2.25.35.28.2.06.4.09.61.09.52,0,.87-.09.87-.26,0-.55-3.71-.17-3.71-1.54,0-.77,1.18-1.15,2.8-1.15,1.79,0,2.6.51,2.76,1.14,0,0-2,0-2,0Z"/>
  <path class="cls-1" d="m17.09,41.29h.83c.65,0,1-.1,1-.34s-.36-.38-.86-.38h-1l.03.72Zm0,.78v1.22h-2.11v-3.6h3c2.15,0,2.86.33,2.86,1,0,.41-.33.76-1.08.88.68.13,1.09.22,1.09.94,0,.47,0,.63.22.63v.15h-2.14c-.08-.2-.12-.41-.11-.63,0-.47-.14-.62-1.12-.62,0,0-.61.03-.61.03Z"/>
  <path class="cls-1" d="m24.27,40.53v.6h.88c.42,0,.73-.11.73-.31s-.42-.29-.86-.29c0,0-.75,0-.75,0Zm0,1.25v.66h.92c.53,0,.92-.06.92-.32s-.49-.34-1.17-.34h-.67Zm-2.11,1.5v-3.59h3.08c1.45,0,2.61.19,2.61.91,0,.37-.43.64-.84.78.7.1,1.07.43,1.07.82,0,.8-1.1,1.08-2.78,1.08h-3.14Z"/>
  <polygon class="cls-2" points="4.02 17.59 24.3 12.54 25.86 17.94 19.34 19.56 23.71 34.74 16.46 36.55 12.09 21.37 5.58 23 4.02 17.59"/>
  <polygon class="cls-2" points="21.9 3.67 23.62 3.67 25.62 5.95 25.55 5 25.55 3.67 27.31 3.67 27.31 7.84 25.59 7.84 23.59 5.57 23.62 6.55 23.66 7.84 21.9 7.84 21.9 3.67"/>
  <polygon class="cls-2" points="15.7 3.67 20.26 3.67 20.26 4.64 17.53 4.64 17.53 5.24 19.84 5.24 19.84 6.21 17.53 6.21 17.53 6.87 20.37 6.87 20.37 7.84 15.7 7.84 15.7 3.67"/>
  <polygon class="cls-2" points="9.28 3.67 13.85 3.67 13.85 4.64 11.11 4.64 11.11 5.24 13.42 5.24 13.42 6.21 11.11 6.21 11.11 6.87 13.96 6.87 13.96 7.84 9.28 7.84 9.28 3.67"/>
  <polygon class="cls-2" points="2.58 3.67 7.72 3.67 7.72 4.77 6.07 4.77 6.07 7.84 4.23 7.84 4.23 4.77 2.58 4.77 2.58 3.67"/>
  <g>
    <path class="cls-1" d="m34.98,5.19l-1.56-4.03h.58l1.05,2.93c.08.23.16.46.21.66.06-.22.14-.44.22-.66l1.09-2.93h.55l-1.58,4.03h-.56Z"/>
    <path class="cls-1" d="m37.43,1.73v-.57h.5v.57h-.5Zm0,3.46v-2.92h.5v2.92h-.5Z"/>
    <path class="cls-1" d="m38.49,3.74c0-.54.15-.94.45-1.2.25-.22.56-.32.92-.32.4,0,.73.13.98.4.26.26.38.62.38,1.09,0,.38-.05.67-.17.89-.11.22-.28.38-.5.5-.22.12-.45.18-.71.18-.41,0-.74-.13-.99-.39s-.38-.64-.38-1.13h0Zm.51,0c0,.38.08.65.25.84s.37.28.62.28.45-.09.62-.28.25-.47.25-.86c0-.36-.08-.63-.25-.82s-.37-.28-.61-.28-.45.09-.62.28-.25.47-.25.84h0Z"/>
    <path class="cls-1" d="m41.79,5.19V1.16h.5v4.03h-.5Z"/>
    <path class="cls-1" d="m45.06,4.25l.51.06c-.08.3-.23.53-.45.7-.22.17-.5.25-.83.25-.43,0-.77-.13-1.01-.4-.25-.26-.38-.63-.38-1.1s.13-.87.38-1.14.58-.41.98-.41.71.14.95.4c.25.26.37.64.37,1.12v.14h-2.18c.02.32.11.56.27.74.17.17.37.26.61.26.18,0,.34-.05.47-.14s.23-.25.31-.46Zm-1.62-.8h1.63c-.02-.25-.08-.43-.19-.56-.16-.19-.36-.29-.62-.29-.23,0-.42.08-.57.23-.16.15-.24.35-.26.61h0Z"/>
    <path class="cls-1" d="m46.19,5.19v-2.92h.44v.41c.22-.32.53-.48.93-.48.17,0,.34.03.49.1.15.06.26.14.33.25s.13.23.16.37c.02.09.03.26.03.48v1.79h-.5v-1.78c0-.2-.02-.35-.06-.45-.04-.1-.11-.18-.2-.24s-.21-.09-.35-.09c-.21,0-.39.07-.55.2-.15.14-.23.39-.23.76v1.59h-.5Z"/>
    <path class="cls-1" d="m51.23,4.13l.49.06c-.05.34-.19.6-.41.79s-.49.29-.81.29c-.4,0-.72-.13-.96-.39s-.37-.64-.37-1.13c0-.32.05-.59.16-.83.11-.24.26-.41.48-.53.21-.12.44-.18.7-.18.32,0,.58.08.78.24s.33.39.39.68l-.48.08c-.05-.2-.13-.35-.24-.44-.12-.1-.26-.15-.42-.15-.25,0-.45.09-.61.27s-.23.47-.23.85.08.68.23.86.35.27.59.27c.2,0,.35-.06.49-.18.13-.12.21-.3.25-.55h-.02Z"/>
    <path class="cls-1" d="m54.13,4.25l.51.06c-.08.3-.23.53-.45.7-.22.17-.5.25-.83.25-.43,0-.77-.13-1.01-.4-.25-.26-.38-.63-.38-1.1s.13-.87.38-1.14.58-.41.98-.41.71.14.95.4c.25.26.37.64.37,1.12v.14h-2.18c.02.32.11.56.27.74.17.17.37.26.61.26.18,0,.34-.05.47-.14s.23-.25.31-.46Zm-1.62-.8h1.63c-.02-.25-.08-.43-.19-.56-.16-.19-.36-.29-.62-.29-.23,0-.42.08-.57.23-.16.15-.24.35-.26.61h0Z"/>
  </g>
  <g>
    <path class="cls-1" d="m33.81,11.95v-4.03h1.51c.31,0,.56.04.74.12s.33.21.44.38c.11.17.16.35.16.53,0,.17-.05.34-.14.49-.09.15-.23.28-.42.37.24.07.43.2.56.37.13.17.2.38.2.61,0,.19-.04.37-.12.53-.08.17-.18.29-.29.38s-.26.16-.44.2-.39.07-.65.07h-1.54,0Zm.53-2.33h.87c.23,0,.41-.02.51-.05.14-.04.24-.11.31-.2.07-.09.11-.21.11-.35,0-.14-.03-.25-.1-.35s-.16-.17-.28-.21-.32-.06-.62-.06h-.8v1.22h0Zm0,1.86h1.01c.17,0,.29,0,.36-.02.12-.02.23-.06.31-.11s.15-.13.2-.23.08-.21.08-.34c0-.15-.04-.28-.11-.39s-.18-.19-.32-.23c-.14-.05-.33-.07-.59-.07h-.93s0,1.39,0,1.39Z"/>
    <path class="cls-1" d="m37.51,11.95v-4.03h.5v4.03h-.5Z"/>
    <path class="cls-1" d="m38.59,10.49c0-.54.15-.94.45-1.2.25-.22.56-.32.92-.32.4,0,.73.13.98.4.26.26.38.62.38,1.09,0,.38-.05.67-.17.89-.11.22-.28.38-.5.5-.22.12-.45.18-.71.18-.41,0-.74-.13-.99-.39s-.38-.64-.38-1.13h0Zm.51,0c0,.38.08.65.25.84s.37.28.62.28.45-.09.62-.28.25-.47.25-.86c0-.36-.08-.63-.25-.82s-.37-.28-.61-.28-.45.09-.62.28-.25.47-.25.84h0Z"/>
    <path class="cls-1" d="m41.72,10.49c0-.54.15-.94.45-1.2.25-.22.56-.32.92-.32.4,0,.73.13.98.4.26.26.38.62.38,1.09,0,.38-.05.67-.17.89-.11.22-.28.38-.5.5-.22.12-.45.18-.71.18-.41,0-.74-.13-.99-.39s-.38-.64-.38-1.13h0Zm.51,0c0,.38.08.65.25.84s.37.28.62.28.45-.09.62-.28.25-.47.25-.86c0-.36-.08-.63-.25-.82s-.37-.28-.61-.28-.45.09-.62.28-.25.47-.25.84h0Z"/>
    <path class="cls-1" d="m46.93,11.95v-.37c-.19.29-.46.44-.82.44-.23,0-.44-.07-.64-.2s-.35-.31-.45-.54-.16-.5-.16-.8.05-.56.14-.8c.1-.24.24-.42.44-.55.2-.13.41-.19.65-.19.17,0,.33.04.47.11.14.08.25.17.34.29v-1.45h.5v4.03h-.47Zm-1.56-1.46c0,.38.08.65.24.84.16.19.35.28.56.28s.4-.09.55-.26c.15-.18.23-.44.23-.81,0-.4-.08-.69-.23-.88s-.35-.28-.57-.28-.41.09-.55.27c-.15.18-.22.47-.22.85h0Z"/>
  </g>
  <g>
    <path class="cls-1" d="m33.82,18.71v-4.03h.8l.95,2.85c.09.26.15.47.2.59.05-.15.12-.36.22-.65l.97-2.81h.72v4.03h-.51v-3.37l-1.17,3.37h-.48l-1.16-3.43v3.43h-.53Z"/>
    <path class="cls-1" d="m38.46,15.24v-.57h.5v.57h-.5Zm0,3.46v-2.92h.5v2.92h-.5Z"/>
    <path class="cls-1" d="m39.7,18.71v-4.03h.5v4.03h-.5Z"/>
    <path class="cls-1" d="m42.86,18.71v-.37c-.19.29-.46.44-.82.44-.23,0-.44-.07-.64-.2s-.35-.31-.45-.54-.16-.5-.16-.8.05-.56.14-.8c.1-.24.24-.42.44-.55.2-.13.41-.19.65-.19.17,0,.33.04.47.11.14.08.25.17.34.29v-1.45h.5v4.03h-.47Zm-1.56-1.46c0,.38.08.65.24.84.16.19.35.28.56.28s.4-.09.55-.26c.15-.18.23-.44.23-.81,0-.4-.08-.69-.23-.88s-.35-.28-.57-.28-.41.09-.55.27c-.15.18-.22.47-.22.85h0Z"/>
    <path class="cls-1" d="m45.69,18.71v-4.03h.53v3.56h1.98v.47h-2.51Z"/>
    <path class="cls-1" d="m50.69,18.34c-.18.16-.36.26-.53.33-.17.06-.35.1-.55.1-.32,0-.57-.08-.74-.23-.17-.16-.26-.35-.26-.6,0-.14.03-.27.1-.39s.15-.21.26-.29c.11-.08.23-.13.35-.17.1-.02.24-.05.44-.08.4-.05.69-.11.89-.17v-.13c0-.2-.05-.35-.14-.43-.13-.11-.32-.17-.56-.17-.23,0-.41.04-.52.12-.11.08-.2.23-.25.44l-.48-.07c.05-.21.11-.38.22-.5.1-.13.25-.23.44-.29s.41-.11.66-.11.45.03.61.09c.16.06.27.14.35.22.08.09.13.2.16.34.02.08.02.23.02.46v.66c0,.46,0,.75.03.87.02.12.06.24.13.35h-.52c-.05-.11-.08-.23-.1-.36h0Zm-.04-1.1c-.18.08-.45.14-.81.19-.2.03-.35.06-.43.1s-.15.09-.2.16c-.05.07-.07.15-.07.23,0,.14.05.24.15.33s.25.14.44.14.36-.05.51-.13.26-.2.33-.35c.05-.11.08-.28.08-.5v-.18h0Z"/>
    <path class="cls-1" d="m51.92,18.71v-2.92h.44v.41c.22-.32.53-.48.93-.48.17,0,.34.03.49.1.15.06.26.14.33.25s.13.23.16.37c.02.09.03.26.03.48v1.79h-.5v-1.78c0-.2-.02-.35-.06-.45-.04-.1-.11-.18-.2-.24s-.21-.09-.35-.09c-.21,0-.39.07-.55.2-.15.14-.23.39-.23.76v1.59h-.5Z"/>
    <path class="cls-1" d="m54.96,18.95l.48.08c.02.15.08.26.17.32.12.09.29.14.5.14.23,0,.41-.05.53-.14s.21-.22.26-.38c.02-.1.04-.32.04-.64-.22.26-.49.38-.81.38-.41,0-.71-.14-.93-.44s-.33-.64-.33-1.04c0-.28.05-.53.15-.77.1-.23.25-.42.44-.55s.41-.2.68-.2c.35,0,.63.14.86.42v-.35h.46v2.52c0,.46-.05.77-.14.97s-.24.34-.44.45-.45.17-.74.17c-.35,0-.63-.08-.84-.23-.22-.16-.32-.39-.31-.71h0Zm.41-1.76c0,.38.08.66.23.84s.35.26.57.26.42-.09.57-.26.23-.45.23-.83-.08-.62-.24-.81c-.16-.18-.35-.27-.57-.27s-.41.09-.56.27-.23.44-.23.8h0Z"/>
    <path class="cls-1" d="m60.09,18.71v-.43c-.23.33-.53.5-.92.5-.17,0-.33-.03-.48-.1s-.26-.15-.33-.25c-.08-.1-.12-.23-.15-.37-.02-.1-.03-.25-.03-.47v-1.81h.5v1.62c0,.26,0,.44.03.53.03.13.1.23.2.31.1.08.23.11.38.11s.29-.04.42-.11c.13-.08.23-.18.28-.31s.08-.32.08-.57v-1.56h.5v2.92h-.44l-.02-.02Z"/>
    <path class="cls-1" d="m63.22,18.34c-.18.16-.36.26-.53.33-.17.06-.35.1-.55.1-.32,0-.57-.08-.74-.23-.17-.16-.26-.35-.26-.6,0-.14.03-.27.1-.39s.15-.21.26-.29c.11-.08.23-.13.35-.17.1-.02.24-.05.44-.08.4-.05.69-.11.89-.17v-.13c0-.2-.05-.35-.14-.43-.13-.11-.32-.17-.56-.17-.23,0-.41.04-.52.12s-.2.23-.25.44l-.48-.07c.05-.21.11-.38.22-.5.1-.13.25-.23.44-.29s.41-.11.66-.11.45.03.61.09.27.14.35.22c.08.09.13.2.16.34.02.08.02.23.02.46v.66c0,.46,0,.75.03.87s.06.24.13.35h-.52c-.05-.11-.08-.23-.1-.36h0Zm-.04-1.1c-.18.08-.45.14-.81.19-.2.03-.35.06-.44.1s-.15.09-.2.16c-.05.07-.07.15-.07.23,0,.14.05.24.15.33s.25.14.44.14.36-.05.51-.13.26-.2.33-.35c.05-.11.08-.28.08-.5v-.18h0Z"/>
    <path class="cls-1" d="m64.36,18.95l.48.08c.02.15.08.26.17.32.12.09.29.14.5.14.23,0,.41-.05.53-.14s.21-.22.26-.38c.02-.1.04-.32.04-.64-.22.26-.49.38-.81.38-.41,0-.71-.14-.93-.44s-.33-.64-.33-1.04c0-.28.05-.53.15-.77.1-.23.25-.42.44-.55s.41-.2.68-.2c.35,0,.63.14.85.42v-.35h.46v2.52c0,.46-.05.77-.14.97-.09.19-.24.34-.44.45s-.45.17-.74.17c-.35,0-.63-.08-.84-.23-.22-.16-.32-.39-.31-.71h0Zm.41-1.76c0,.38.08.66.23.84.15.17.35.26.57.26s.42-.09.57-.26.23-.45.23-.83-.08-.62-.24-.81c-.16-.18-.35-.27-.57-.27s-.41.09-.56.27-.23.44-.23.8h0Z"/>
    <path class="cls-1" d="m69.57,17.77l.51.06c-.08.3-.23.53-.45.7-.22.17-.5.25-.83.25-.43,0-.77-.13-1.01-.4s-.38-.63-.38-1.1.13-.87.38-1.14c.26-.27.58-.41.98-.41s.71.14.95.4c.25.26.37.64.37,1.12v.14h-2.18c.02.32.11.56.27.74s.37.26.61.26c.18,0,.34-.05.47-.14s.23-.25.31-.46Zm-1.62-.8h1.63c-.02-.25-.08-.43-.19-.56-.16-.19-.36-.29-.62-.29-.23,0-.42.08-.57.23-.16.15-.24.35-.26.61h0Z"/>
  </g>
  <g>
    <path class="cls-1" d="m33.39,25.46l1.55-4.03h.58l1.65,4.03h-.61l-.47-1.22h-1.69l-.44,1.22h-.56Zm1.16-1.66h1.37l-.42-1.12c-.13-.34-.23-.62-.29-.83-.05.26-.13.52-.22.77,0,0-.44,1.18-.44,1.18Z"/>
    <path class="cls-1" d="m37.51,25.46v-4.03h.5v4.03h-.5Z"/>
    <path class="cls-1" d="m40.68,24.4l.49.06c-.05.34-.19.6-.41.79s-.49.29-.81.29c-.4,0-.72-.13-.96-.39-.24-.26-.37-.64-.37-1.13,0-.32.05-.59.16-.83.11-.24.26-.41.48-.53.21-.12.44-.18.7-.18.32,0,.58.08.78.24s.33.39.39.68l-.48.08c-.05-.2-.13-.35-.24-.44-.12-.1-.26-.15-.42-.15-.25,0-.45.09-.61.27s-.23.47-.23.85.08.68.23.86c.15.18.35.27.59.27.2,0,.35-.06.49-.18.13-.12.21-.3.25-.55h-.02Z"/>
    <path class="cls-1" d="m41.41,24c0-.54.15-.94.45-1.2.25-.22.56-.32.92-.32.4,0,.73.13.98.4.26.26.38.62.38,1.09,0,.38-.05.67-.17.89-.11.22-.28.38-.5.5s-.45.18-.71.18c-.41,0-.74-.13-.99-.39-.26-.26-.38-.64-.38-1.13h0Zm.51,0c0,.38.08.65.25.84s.37.28.62.28.45-.09.62-.28.25-.47.25-.86c0-.36-.08-.63-.25-.82s-.37-.28-.61-.28-.45.09-.62.28-.25.47-.25.84h0Z"/>
    <path class="cls-1" d="m44.72,25.46v-4.03h.5v1.45c.23-.27.53-.4.88-.4.22,0,.41.05.56.13s.27.2.35.35c.07.15.11.37.11.65v1.85h-.5v-1.85c0-.25-.05-.43-.16-.54s-.26-.17-.46-.17c-.15,0-.29.04-.41.11s-.22.18-.28.31c-.05.13-.08.31-.08.54v1.6h-.5Z"/>
    <path class="cls-1" d="m47.67,24c0-.54.15-.94.45-1.2.25-.22.56-.32.92-.32.4,0,.73.13.98.4.26.26.38.62.38,1.09,0,.38-.05.67-.17.89-.11.22-.28.38-.5.5s-.45.18-.71.18c-.41,0-.74-.13-.99-.39-.26-.26-.38-.64-.38-1.13h0Zm.51,0c0,.38.08.65.25.84s.37.28.62.28.45-.09.62-.28.25-.47.25-.86c0-.36-.08-.63-.25-.82s-.37-.28-.61-.28-.45.09-.62.28-.25.47-.25.84h0Z"/>
    <path class="cls-1" d="m50.97,25.46v-4.03h.5v4.03h-.5Z"/>
    <path class="cls-1" d="m53.87,25.46v-4.03h1.79c.36,0,.63.04.82.11s.34.2.45.38.17.38.17.61c0,.29-.09.53-.28.72-.19.2-.47.32-.86.38.14.07.25.14.32.2.16.14.3.32.44.53l.7,1.1h-.67l-.53-.84c-.16-.24-.29-.43-.38-.56s-.19-.22-.27-.27-.16-.09-.24-.11c-.06-.02-.16-.02-.3-.02h-.62v1.79h-.54Zm.53-2.25h1.15c.24,0,.44-.02.57-.08s.24-.13.32-.24.11-.23.11-.36c0-.19-.07-.35-.21-.47-.14-.12-.36-.19-.65-.19h-1.28s0,1.34,0,1.34Z"/>
    <path class="cls-1" d="m59.87,24.52l.51.06c-.08.3-.23.53-.45.7s-.5.25-.83.25c-.43,0-.77-.13-1.01-.4s-.38-.63-.38-1.1.13-.87.38-1.14c.26-.27.58-.41.98-.41s.71.14.95.4c.25.26.37.64.37,1.12v.14h-2.18c.02.32.11.56.27.74s.37.26.61.26c.18,0,.34-.05.47-.14s.23-.25.31-.46Zm-1.62-.8h1.63c-.02-.25-.08-.43-.19-.56-.16-.19-.36-.29-.62-.29-.23,0-.42.08-.57.23-.16.15-.24.35-.26.61h0Z"/>
    <path class="cls-1" d="m61.11,25.46v-2.54h-.44v-.38h.44v-.31c0-.2.02-.35.05-.44.05-.13.13-.23.25-.32s.29-.12.5-.12c.14,0,.29.02.47.05l-.08.44c-.11-.02-.2-.03-.29-.03-.15,0-.26.03-.32.1-.06.06-.09.19-.09.36v.27h.57v.38h-.57v2.54h-.5Z"/>
    <path class="cls-1" d="m64.56,24.52l.51.06c-.08.3-.23.53-.45.7s-.5.25-.83.25c-.43,0-.77-.13-1.01-.4s-.38-.63-.38-1.1.13-.87.38-1.14c.26-.27.58-.41.98-.41s.71.14.95.4c.25.26.37.64.37,1.12v.14h-2.18c.02.32.11.56.27.74s.37.26.61.26c.18,0,.34-.05.47-.14s.23-.25.31-.46Zm-1.62-.8h1.63c-.02-.25-.08-.43-.19-.56-.16-.19-.36-.29-.62-.29-.23,0-.42.08-.57.23-.16.15-.24.35-.26.61h0Z"/>
    <path class="cls-1" d="m65.68,25.46v-2.92h.44v.44c.11-.21.22-.35.32-.41s.2-.1.32-.1c.17,0,.34.05.51.16l-.17.46c-.12-.07-.24-.11-.36-.11-.11,0-.2.03-.29.1-.08.07-.15.16-.19.27-.05.17-.08.37-.08.58v1.53h-.5,0Z"/>
    <path class="cls-1" d="m69.57,24.52l.51.06c-.08.3-.23.53-.45.7s-.5.25-.83.25c-.43,0-.77-.13-1.01-.4-.25-.26-.38-.63-.38-1.1s.13-.87.38-1.14c.26-.27.58-.41.98-.41s.71.14.95.4c.25.26.38.64.38,1.12v.14h-2.18c.02.32.11.56.27.74.17.17.37.26.61.26.18,0,.34-.05.47-.14s.23-.25.31-.46h0Zm-1.63-.8h1.63c-.02-.25-.08-.43-.19-.56-.16-.19-.36-.29-.62-.29-.23,0-.42.08-.57.23-.16.15-.24.35-.26.61h0Z"/>
    <path class="cls-1" d="m70.7,25.46v-2.92h.44v.41c.22-.32.53-.48.93-.48.17,0,.34.03.49.1s.26.14.33.25.13.23.16.37c.02.09.03.26.03.48v1.79h-.5v-1.78c0-.2-.02-.35-.06-.45-.04-.1-.11-.18-.2-.24s-.21-.09-.35-.09c-.21,0-.39.07-.55.2-.15.14-.23.39-.23.76v1.59h-.5,0Z"/>
    <path class="cls-1" d="m75.74,24.4l.49.06c-.05.34-.19.6-.41.79s-.49.29-.81.29c-.4,0-.72-.13-.96-.39-.24-.26-.37-.64-.37-1.13,0-.32.05-.59.16-.83.11-.24.26-.41.47-.53s.44-.18.7-.18c.32,0,.58.08.78.24.2.16.33.39.39.68l-.48.08c-.05-.2-.13-.35-.24-.44-.12-.1-.26-.15-.42-.15-.25,0-.45.09-.61.27s-.23.47-.23.85.08.68.23.86c.15.18.35.27.59.27.2,0,.35-.06.49-.18.13-.12.21-.3.25-.55h0Z"/>
    <path class="cls-1" d="m78.64,24.52l.51.06c-.08.3-.23.53-.45.7s-.5.25-.83.25c-.43,0-.77-.13-1.01-.4s-.38-.63-.38-1.1.13-.87.38-1.14c.26-.27.58-.41.98-.41s.71.14.95.4c.25.26.37.64.37,1.12v.14h-2.18c.02.32.11.56.27.74s.37.26.61.26c.18,0,.34-.05.47-.14s.23-.25.31-.46Zm-1.62-.8h1.63c-.02-.25-.08-.43-.19-.56-.16-.19-.36-.29-.62-.29-.23,0-.42.08-.57.23-.16.15-.24.35-.26.61h0Z"/>
  </g>
  <g>
    <path class="cls-1" d="m33.45,37.36v-4.03h.53v4.03h-.53Z"/>
    <path class="cls-1" d="m34.86,37.36v-2.92h.44v.41c.22-.32.53-.48.93-.48.17,0,.34.03.49.1.15.06.26.14.33.25s.13.23.16.37c.02.09.03.26.03.48v1.79h-.5v-1.78c0-.2-.02-.35-.06-.45-.04-.1-.11-.18-.2-.24-.1-.06-.21-.09-.35-.09-.21,0-.39.07-.55.2-.15.14-.23.39-.23.76v1.59h-.5Z"/>
    <path class="cls-1" d="m37.8,36.15v-.5h1.52v.5h-1.52Z"/>
    <path class="cls-1" d="m41.81,35.78v-.47h1.7v1.49c-.26.21-.53.37-.81.47s-.56.16-.86.16c-.4,0-.76-.08-1.08-.26s-.57-.41-.74-.74-.25-.68-.25-1.07.08-.76.25-1.1.4-.59.71-.76.66-.25,1.07-.25c.29,0,.56.05.79.14.23.1.42.23.56.4s.23.39.31.66l-.48.14c-.06-.2-.14-.37-.23-.48s-.22-.21-.38-.29c-.17-.07-.35-.11-.56-.11-.24,0-.46.04-.63.11s-.32.17-.43.29c-.11.12-.2.26-.26.4-.11.25-.16.52-.16.81,0,.36.06.66.19.9.12.24.3.42.54.54.23.12.49.17.75.17.23,0,.46-.05.68-.14s.38-.19.5-.29v-.75h-1.19Z"/>
    <path class="cls-1" d="m46.15,37c-.18.16-.36.26-.53.33-.17.06-.35.1-.55.1-.32,0-.57-.08-.74-.23-.17-.16-.26-.35-.26-.6,0-.14.03-.27.1-.39s.15-.21.26-.29c.11-.08.23-.13.35-.17.1-.02.24-.05.44-.08.4-.05.69-.11.89-.17v-.13c0-.2-.05-.35-.14-.43-.13-.11-.32-.17-.56-.17-.23,0-.41.04-.52.12-.11.08-.2.23-.25.44l-.48-.07c.05-.21.11-.38.22-.5.1-.13.25-.23.44-.29s.41-.11.66-.11.45.03.61.09c.16.06.27.14.35.22.08.09.13.2.16.34.02.08.02.23.02.46v.66c0,.46,0,.75.03.87.02.12.06.24.13.35h-.52c-.05-.11-.08-.23-.1-.36h0Zm-.04-1.1c-.18.08-.45.14-.81.19-.2.03-.35.06-.43.1s-.15.09-.2.16c-.05.07-.07.15-.07.23,0,.14.05.24.15.33s.25.14.44.14.36-.05.51-.13c.15-.08.26-.2.33-.35.05-.11.08-.28.08-.5v-.18h0Z"/>
    <path class="cls-1" d="m47.38,37.36v-2.92h.44v.41c.09-.14.21-.26.37-.35.15-.09.32-.13.52-.13.22,0,.39.05.53.14.14.09.23.22.29.38.23-.34.53-.51.9-.51.29,0,.51.08.67.24s.23.41.23.74v2h-.5v-1.84c0-.2-.02-.34-.05-.43s-.09-.16-.17-.21-.18-.08-.3-.08c-.2,0-.38.07-.51.2s-.2.35-.2.65v1.7h-.5v-1.9c0-.22-.04-.38-.12-.5s-.21-.17-.4-.17c-.14,0-.27.04-.38.11-.12.08-.2.18-.26.32s-.08.35-.08.61v1.52h-.5Z"/>
    <path class="cls-1" d="m54.06,36.42l.51.06c-.08.3-.23.53-.45.7-.22.17-.5.25-.83.25-.43,0-.77-.13-1.01-.4-.25-.26-.38-.63-.38-1.1s.13-.87.38-1.14.58-.41.98-.41.71.14.95.4c.25.26.37.64.37,1.12v.14h-2.18c.02.32.11.56.27.74.17.17.37.26.61.26.18,0,.34-.05.47-.14s.23-.25.31-.46Zm-1.62-.8h1.63c-.02-.25-.08-.43-.19-.56-.16-.19-.36-.29-.62-.29-.23,0-.42.08-.57.23-.16.15-.24.35-.26.61h0Z"/>
    <path class="cls-1" d="m56.83,37.36v-4.03h1.52c.27,0,.47.02.62.04.2.03.36.1.5.19s.24.23.32.39.12.35.12.55c0,.35-.11.63-.33.87s-.61.35-1.18.35h-1.04v1.64h-.53,0Zm.53-2.12h1.04c.35,0,.59-.06.74-.2.14-.13.22-.31.22-.54,0-.17-.05-.32-.13-.44-.08-.12-.2-.2-.34-.24-.09-.02-.26-.04-.5-.04h-1.03v1.44h0Z"/>
    <path class="cls-1" d="m62.43,37.36v-.43c-.23.33-.53.5-.92.5-.17,0-.33-.03-.48-.1s-.26-.15-.33-.25c-.08-.1-.12-.23-.15-.37-.02-.1-.03-.25-.03-.47v-1.81h.5v1.62c0,.26,0,.44.03.53.03.13.1.23.2.31s.23.11.38.11.29-.04.42-.11.23-.18.28-.31.08-.32.08-.57v-1.56h.5v2.92h-.44l-.02-.02Z"/>
    <path class="cls-1" d="m63.64,37.36v-2.92h.44v.44c.11-.21.22-.35.32-.41s.2-.1.32-.1c.17,0,.34.05.51.16l-.17.46c-.12-.07-.24-.11-.36-.11-.11,0-.2.03-.29.1s-.15.16-.19.27c-.05.17-.08.37-.08.58v1.53h-.5,0Z"/>
    <path class="cls-1" d="m67.43,36.29l.49.06c-.05.34-.19.6-.41.79s-.49.29-.81.29c-.4,0-.72-.13-.96-.39-.24-.26-.37-.64-.37-1.13,0-.32.05-.59.16-.83.11-.24.26-.41.48-.53.21-.12.44-.18.7-.18.32,0,.58.08.78.24.2.16.33.39.39.68l-.48.08c-.05-.2-.13-.35-.24-.44-.12-.1-.26-.15-.42-.15-.25,0-.45.09-.61.27s-.23.47-.23.85.08.68.23.86c.15.18.35.27.59.27.2,0,.35-.06.49-.18.13-.12.21-.3.25-.55h-.02Z"/>
    <path class="cls-1" d="m68.34,37.36v-4.03h.5v1.45c.23-.27.53-.4.88-.4.22,0,.41.05.56.13.16.08.27.2.35.35s.11.37.11.65v1.85h-.5v-1.85c0-.25-.05-.43-.16-.54s-.26-.17-.46-.17c-.15,0-.29.04-.41.11-.13.08-.22.18-.28.31-.05.13-.08.31-.08.54v1.6h-.5Z"/>
    <path class="cls-1" d="m73.38,37c-.18.16-.36.26-.53.33-.17.06-.35.1-.55.1-.32,0-.57-.08-.74-.23-.17-.16-.26-.35-.26-.6,0-.14.03-.27.1-.39s.15-.21.26-.29c.11-.08.23-.13.35-.17.1-.02.24-.05.44-.08.4-.05.69-.11.89-.17v-.13c0-.2-.05-.35-.14-.43-.13-.11-.32-.17-.56-.17-.23,0-.41.04-.52.12s-.2.23-.25.44l-.48-.07c.05-.21.12-.38.22-.5s.25-.23.44-.29.41-.11.66-.11.45.03.61.09c.16.06.27.14.35.22.08.09.13.2.16.34.02.08.02.23.02.46v.66c0,.46,0,.75.03.87s.06.24.13.35h-.52c-.05-.11-.08-.23-.1-.36h0Zm-.04-1.1c-.18.08-.45.14-.81.19-.2.03-.35.06-.43.1s-.15.09-.2.16c-.05.07-.07.15-.07.23,0,.14.05.24.15.33s.25.14.44.14.36-.05.51-.13c.15-.08.26-.2.33-.35.05-.11.08-.28.08-.5v-.18h0Z"/>
    <path class="cls-1" d="m74.41,36.49l.49-.08c.03.2.11.35.23.45s.3.16.53.16.4-.05.5-.14c.11-.09.17-.2.17-.32,0-.11-.05-.2-.14-.26-.07-.05-.23-.1-.5-.17-.36-.09-.62-.17-.75-.24-.14-.07-.25-.16-.32-.28-.08-.12-.11-.25-.11-.39,0-.13.03-.25.09-.36.06-.11.14-.2.24-.28.08-.06.18-.11.32-.14s.28-.06.43-.06c.23,0,.43.03.6.1s.3.16.38.27.14.26.17.45l-.48.07c-.02-.15-.08-.27-.19-.35s-.26-.13-.44-.13c-.23,0-.39.04-.49.11-.1.08-.14.17-.14.26,0,.07.02.12.06.17s.11.1.19.14c.05.02.2.06.44.13.35.09.59.17.74.23.14.06.25.15.32.26.08.11.12.26.12.42s-.05.32-.14.47c-.1.14-.23.26-.41.34-.18.08-.39.12-.62.12-.38,0-.67-.08-.87-.23-.2-.16-.32-.39-.38-.7l-.02-.02Z"/>
    <path class="cls-1" d="m79.42,36.42l.51.06c-.08.3-.23.53-.45.7s-.5.25-.83.25c-.43,0-.77-.13-1.01-.4s-.38-.63-.38-1.1.13-.87.38-1.14c.26-.27.58-.41.98-.41s.71.14.95.4c.25.26.37.64.37,1.12v.14h-2.18c.02.32.11.56.27.74.17.17.37.26.61.26.18,0,.34-.05.47-.14s.23-.25.31-.46Zm-1.62-.8h1.63c-.02-.25-.08-.43-.19-.56-.16-.19-.36-.29-.62-.29-.23,0-.42.08-.57.23-.16.15-.24.35-.26.61h0Z"/>
    <path class="cls-1" d="m80.35,36.49l.49-.08c.03.2.11.35.23.45s.3.16.53.16.4-.05.5-.14c.11-.09.17-.2.17-.32,0-.11-.05-.2-.14-.26-.07-.05-.23-.1-.5-.17-.36-.09-.62-.17-.75-.24s-.25-.16-.32-.28c-.08-.12-.11-.25-.11-.39,0-.13.03-.25.09-.36.06-.11.14-.2.24-.28.08-.06.18-.11.32-.14s.28-.06.43-.06c.23,0,.43.03.6.1s.3.16.38.27.14.26.17.45l-.48.07c-.02-.15-.08-.27-.19-.35s-.26-.13-.44-.13c-.23,0-.39.04-.49.11-.1.08-.14.17-.14.26,0,.07.02.12.06.17s.11.1.19.14c.05.02.2.06.44.13.35.09.59.17.74.23s.25.15.32.26c.08.11.12.26.12.42s-.05.32-.14.47c-.1.14-.23.26-.41.34-.18.08-.39.12-.62.12-.38,0-.67-.08-.87-.23-.2-.16-.32-.39-.38-.7l-.02-.02Z"/>
    <path class="cls-1" d="m36,40.08h.53v2.33c0,.41-.05.73-.14.97s-.26.44-.5.58c-.24.15-.56.23-.94.23s-.68-.07-.92-.2-.41-.32-.51-.56c-.11-.25-.16-.59-.16-1.01v-2.33h.53v2.33c0,.35.03.61.1.77.07.17.18.29.34.38s.35.14.58.14c.39,0,.67-.09.84-.27.17-.18.25-.52.25-1.03v-2.33h0Z"/>
    <path class="cls-1" d="m37.17,43.25l.49-.08c.03.2.11.35.23.45.13.11.3.16.53.16s.4-.05.5-.14c.11-.09.17-.2.17-.32,0-.11-.05-.2-.14-.26-.07-.05-.23-.1-.5-.17-.36-.09-.62-.17-.75-.24-.14-.07-.25-.16-.32-.28-.08-.12-.11-.25-.11-.39,0-.13.03-.25.09-.36.06-.11.14-.2.24-.28.08-.06.18-.11.32-.14.14-.04.28-.06.43-.06.23,0,.43.03.6.1s.3.16.38.27c.08.11.14.26.17.45l-.48.07c-.02-.15-.08-.27-.19-.35s-.26-.13-.44-.13c-.23,0-.39.04-.49.11-.1.08-.14.17-.14.26,0,.07.02.12.06.17.04.05.11.1.19.14.05.02.2.06.44.13.35.09.59.17.74.23.14.06.25.15.32.26.08.11.12.26.12.42s-.05.32-.14.47c-.1.14-.23.26-.41.34-.18.08-.39.12-.62.12-.38,0-.67-.08-.87-.23-.2-.16-.32-.39-.38-.7l-.02-.02Z"/>
    <path class="cls-1" d="m42.17,43.18l.51.06c-.08.3-.23.53-.45.7-.22.17-.5.25-.83.25-.43,0-.77-.13-1.01-.4-.25-.26-.38-.63-.38-1.1s.13-.87.38-1.14.58-.41.98-.41.71.14.95.4c.25.26.37.64.37,1.12v.14h-2.18c.02.32.11.56.27.74.17.17.37.26.61.26.18,0,.34-.05.47-.14s.23-.25.31-.46Zm-1.62-.8h1.63c-.02-.25-.08-.43-.19-.56-.16-.19-.36-.29-.62-.29-.23,0-.42.08-.57.23-.16.15-.24.35-.26.61h0Z"/>
    <path class="cls-1" d="m43.31,44.12v-2.92h.44v.44c.11-.21.22-.35.32-.41.1-.07.2-.1.32-.1.17,0,.34.05.51.16l-.17.46c-.12-.07-.24-.11-.36-.11-.11,0-.2.03-.29.1s-.15.16-.19.27c-.05.17-.08.37-.08.58v1.53h-.5,0Z"/>
    <path class="cls-1" d="m44.99,43.25l.49-.08c.03.2.11.35.23.45.13.11.3.16.53.16s.4-.05.5-.14c.11-.09.17-.2.17-.32,0-.11-.05-.2-.14-.26-.07-.05-.23-.1-.5-.17-.36-.09-.62-.17-.75-.24-.14-.07-.25-.16-.32-.28-.08-.12-.11-.25-.11-.39,0-.13.03-.25.09-.36.06-.11.14-.2.24-.28.08-.06.18-.11.32-.14.14-.04.28-.06.43-.06.23,0,.43.03.6.1s.3.16.38.27c.08.11.14.26.17.45l-.48.07c-.02-.15-.08-.27-.19-.35s-.26-.13-.44-.13c-.23,0-.39.04-.49.11-.1.08-.14.17-.14.26,0,.07.02.12.06.17.04.05.11.1.19.14.05.02.2.06.44.13.35.09.59.17.74.23.14.06.25.15.32.26.08.11.12.26.12.42s-.05.32-.14.47c-.1.14-.23.26-.41.34-.18.08-.39.12-.62.12-.38,0-.67-.08-.87-.23-.2-.16-.32-.39-.38-.7l-.02-.02Z"/>
    <path class="cls-1" d="m49.72,44.12v-4.03h.53v4.03h-.53Z"/>
    <path class="cls-1" d="m51.13,44.12v-2.92h.44v.41c.22-.32.53-.48.93-.48.17,0,.34.03.49.1.15.06.26.14.33.25s.13.23.16.37c.02.09.03.26.03.48v1.79h-.5v-1.78c0-.2-.02-.35-.06-.45-.04-.1-.11-.18-.2-.24-.1-.06-.21-.09-.35-.09-.21,0-.39.07-.55.2-.15.14-.23.39-.23.76v1.59h-.5Z"/>
    <path class="cls-1" d="m55.34,43.67l.08.44c-.14.03-.26.05-.38.05-.18,0-.32-.03-.42-.08-.1-.06-.17-.13-.21-.23-.04-.09-.06-.29-.06-.59v-1.68h-.36v-.38h.36v-.72l.5-.3v1.02h.5v.38h-.5v1.7c0,.14,0,.23.03.27.02.04.05.08.08.1.04.02.1.04.17.04.05,0,.13,0,.22-.02h0Z"/>
    <path class="cls-1" d="m57.82,43.18l.51.06c-.08.3-.23.53-.45.7s-.5.25-.83.25c-.43,0-.77-.13-1.01-.4-.25-.26-.38-.63-.38-1.1s.13-.87.38-1.14.58-.41.98-.41.71.14.95.4c.25.26.37.64.37,1.12v.14h-2.18c.02.32.11.56.27.74.17.17.37.26.61.26.18,0,.34-.05.47-.14.13-.1.23-.25.31-.46Zm-1.62-.8h1.63c-.02-.25-.08-.43-.19-.56-.16-.19-.36-.29-.62-.29-.23,0-.42.08-.57.23-.16.15-.24.35-.26.61h0Z"/>
    <path class="cls-1" d="m58.95,44.12v-2.92h.44v.44c.11-.21.22-.35.32-.41s.2-.1.32-.1c.17,0,.34.05.51.16l-.17.46c-.12-.07-.24-.11-.36-.11-.11,0-.2.03-.29.1-.08.07-.15.16-.19.27-.05.17-.08.37-.08.58v1.53h-.5,0Z"/>
    <path class="cls-1" d="m62.73,43.76c-.18.16-.36.26-.53.33-.17.06-.35.1-.55.1-.32,0-.57-.08-.74-.23-.17-.16-.26-.35-.26-.6,0-.14.03-.27.1-.39s.15-.21.26-.29c.11-.08.23-.13.35-.17.1-.02.25-.05.44-.08.4-.05.69-.11.89-.17v-.13c0-.2-.05-.35-.14-.43-.13-.11-.32-.17-.56-.17-.23,0-.41.04-.52.12s-.2.23-.25.44l-.48-.07c.05-.21.11-.38.22-.5.1-.13.25-.23.44-.29s.41-.11.66-.11.45.03.61.09c.16.06.27.14.35.22.08.09.13.2.16.34.02.08.02.23.02.46v.66c0,.46,0,.75.03.87s.06.24.13.35h-.52c-.05-.11-.08-.23-.1-.36h0Zm-.04-1.1c-.18.08-.45.14-.81.19-.2.03-.35.06-.43.1s-.15.09-.2.16c-.05.07-.07.15-.07.23,0,.14.05.24.15.33s.25.14.44.14.36-.05.51-.13c.15-.08.26-.2.33-.35.05-.11.08-.28.08-.5v-.18h0Z"/>
    <path class="cls-1" d="m65.86,43.04l.49.06c-.05.34-.19.6-.41.79s-.49.29-.81.29c-.4,0-.72-.13-.96-.39-.24-.26-.36-.64-.36-1.13,0-.32.05-.59.16-.83.11-.24.26-.41.47-.53s.44-.18.7-.18c.32,0,.58.08.78.24.2.16.33.39.39.68l-.48.08c-.05-.2-.13-.35-.24-.44s-.26-.15-.42-.15c-.25,0-.45.09-.61.27s-.23.47-.23.85.08.68.23.86c.15.18.35.27.59.27.2,0,.35-.06.49-.18.13-.12.21-.3.25-.55h-.02Z"/>
    <path class="cls-1" d="m67.85,43.67l.07.44c-.14.03-.26.05-.38.05-.18,0-.32-.03-.42-.08-.1-.06-.17-.13-.21-.23-.04-.09-.06-.29-.06-.59v-1.68h-.36v-.38h.36v-.72l.49-.3v1.02h.5v.38h-.5v1.7c0,.14,0,.23.03.27.02.04.05.08.08.1.04.02.1.04.17.04.05,0,.13,0,.22-.02h0Z"/>
  </g>
  <rect class="cls-1" x="33.45" y="29.49" width="49.33" height=".54"/>
</svg>